<svg width="41" height="40" viewBox="0 0 41 40" fill="none" xmlns="http://www.w3.org/2000/svg">
<path d="M30.608 8.43498C30.4787 8.43502 30.3536 8.38868 30.2555 8.30438C30.1574 8.22007 30.0928 8.10339 30.0734 7.97552C30.0124 7.65793 29.9686 7.33728 29.9421 7.01498C29.9196 6.63699 29.8571 6.26246 29.7556 5.89768C29.7096 5.76149 29.7195 5.61259 29.7833 5.48375C29.847 5.35491 29.9594 5.25667 30.0956 5.21065C30.2318 5.16463 30.3807 5.1746 30.5095 5.23836C30.6383 5.30213 30.7366 5.41446 30.7826 5.55065C30.9115 5.99239 30.9911 6.44706 31.0199 6.90633C31.0434 7.19822 31.0831 7.48857 31.1388 7.77606C31.147 7.81408 31.1512 7.85285 31.1513 7.89173C31.1516 7.96317 31.1378 8.03397 31.1106 8.10005C31.0835 8.16612 31.0435 8.22615 30.9929 8.27666C30.9424 8.32718 30.8824 8.36718 30.8163 8.39435C30.7503 8.42153 30.6795 8.43533 30.608 8.43498Z" fill="#0C347B"/>
<path d="M23.603 27.952C22.9923 27.9018 22.3987 27.7247 21.8603 27.432C21.4386 27.2013 20.9769 27.0529 20.4998 26.9947C20.0227 27.0529 19.561 27.2013 19.1392 27.432C18.4192 27.7563 17.6738 28.0952 16.916 27.8893C16.129 27.6811 15.6219 26.9703 15.1738 26.3482C15.0117 26.1222 14.8592 25.9093 14.7014 25.726C14.6892 25.7119 14.6778 25.6971 14.6674 25.6817C14.5495 25.543 14.4113 25.4229 14.2576 25.3255C13.8243 25.1422 13.3604 25.0423 12.8901 25.0309C12.0976 24.9514 11.2782 24.8687 10.7138 24.3076C10.1495 23.7466 10.0587 22.8784 9.98249 22.119C9.97034 21.6506 9.87079 21.1886 9.68898 20.7568C9.4079 20.3895 9.06068 20.0778 8.66519 19.8379C8.04141 19.3925 7.33438 18.8871 7.12195 18.1039C6.92141 17.3471 7.25546 16.6017 7.57925 15.8839C7.80997 15.4587 7.95833 14.9938 8.01654 14.5136C7.95828 14.0355 7.81009 13.5728 7.57979 13.1498C7.25546 12.432 6.92087 11.6903 7.12087 10.9336C7.33438 10.1466 8.03979 9.64115 8.66519 9.19574C9.061 8.95582 9.40827 8.64375 9.68898 8.27574C9.87018 7.84383 9.969 7.38183 9.98033 6.91358C10.0565 6.15682 10.1425 5.29196 10.7101 4.72601C11.2776 4.16007 12.0971 4.08115 12.8884 4.00007C13.3607 3.98861 13.8265 3.88811 14.2614 3.70385C14.625 3.42487 14.9335 3.08063 15.1711 2.68871C15.6192 2.06169 16.1268 1.35088 16.9182 1.14115C17.6749 0.938444 18.4187 1.27412 19.1392 1.59953C19.5609 1.83052 20.0226 1.97929 20.4998 2.0379C20.6887 2.03151 20.8754 1.99501 21.0528 1.9298C21.1202 1.90736 21.1914 1.89844 21.2623 1.90352C21.3332 1.9086 21.4024 1.9276 21.4659 1.95942C21.5294 1.99124 21.5861 2.03527 21.6326 2.08899C21.6792 2.14271 21.7147 2.20506 21.7371 2.2725C21.7595 2.33993 21.7684 2.41113 21.7634 2.48201C21.7583 2.5529 21.7393 2.62209 21.7075 2.68564C21.6756 2.74918 21.6316 2.80584 21.5779 2.85237C21.5242 2.8989 21.4618 2.93439 21.3944 2.95682C21.1069 3.05869 20.8048 3.11345 20.4998 3.11899C19.867 3.07028 19.2517 2.88867 18.6938 2.58601C18.2455 2.30764 17.7245 2.16862 17.1971 2.18655C16.7798 2.29736 16.4095 2.81628 16.0511 3.31844C15.7319 3.84124 15.307 4.29158 14.8036 4.64061C14.2385 4.91122 13.6228 5.06002 12.9965 5.07736C12.4594 5.06121 11.9296 5.20556 11.4749 5.49196C11.1895 5.94998 11.0446 6.48164 11.0582 7.02115C11.041 7.64299 10.8937 8.25433 10.6257 8.81574C10.2755 9.32445 9.82159 9.75329 9.29384 10.0741C8.79438 10.4314 8.27762 10.8006 8.16573 11.212C8.1498 11.7382 8.28889 12.2576 8.56573 12.7055C8.86801 13.2642 9.04942 13.8802 9.09816 14.5136C9.04966 15.1489 8.86807 15.767 8.56519 16.3276C8.28807 16.7765 8.14949 17.2971 8.16681 17.8244C8.27762 18.232 8.79438 18.6011 9.29438 18.9595C9.82223 19.2799 10.2765 19.7082 10.6274 20.2163C10.8952 20.7779 11.0426 21.3894 11.0598 22.0114C11.0462 22.5517 11.1917 23.084 11.4782 23.5422C11.9344 23.8249 12.4632 23.9684 12.9998 23.9552C13.6258 23.9724 14.2412 24.1214 14.8057 24.3925C15.0761 24.5593 15.3175 24.769 15.5203 25.0136C15.5348 25.0307 15.5482 25.0488 15.5603 25.0676C15.7355 25.2752 15.8971 25.5001 16.0538 25.7206C16.4128 26.2206 16.783 26.7379 17.1965 26.8471C17.7248 26.8671 18.2469 26.7283 18.6955 26.4487C19.2526 26.1455 19.8674 25.9632 20.4998 25.9136C21.1325 25.9623 21.7479 26.1439 22.3057 26.4466C22.754 26.7252 23.275 26.8643 23.8025 26.846C24.2198 26.7379 24.5906 26.2152 24.9495 25.7109C25.1171 25.4768 25.2901 25.2347 25.4787 25.0147C25.6795 24.7668 25.921 24.5547 26.1928 24.3876C26.758 24.1191 27.3732 23.9718 27.9987 23.9552C28.538 23.9727 29.0703 23.8283 29.5268 23.5406C29.8123 23.0826 29.9571 22.5509 29.9436 22.0114C29.9607 21.3896 30.108 20.7782 30.376 20.2168C30.7261 19.7082 31.1798 19.2793 31.7074 18.9584C32.2074 18.6011 32.7241 18.232 32.836 17.8233C32.8518 17.2973 32.7129 16.7782 32.4365 16.3303C32.1337 15.7697 31.9521 15.1516 31.9036 14.5163C31.9523 13.8829 32.1337 13.2669 32.436 12.7082C32.7136 12.2593 32.8523 11.7384 32.8349 11.2109C32.8166 11.1418 32.7872 11.076 32.7479 11.0163C32.7069 10.9568 32.6782 10.8898 32.6636 10.8191C32.6489 10.7483 32.6486 10.6754 32.6626 10.6046C32.6766 10.5337 32.7047 10.4664 32.7452 10.4066C32.7856 10.3468 32.8377 10.2957 32.8982 10.2563C32.9587 10.2169 33.0266 10.1901 33.0976 10.1774C33.1687 10.1646 33.2416 10.1663 33.3121 10.1822C33.3825 10.1981 33.449 10.228 33.5077 10.2701C33.5664 10.3121 33.6161 10.3655 33.6538 10.4271C33.7563 10.5833 33.8328 10.7551 33.8803 10.9357C34.0803 11.6925 33.7452 12.4347 33.4214 13.152C33.1911 13.5749 33.0429 14.0377 32.9847 14.5157C33.0429 14.996 33.1912 15.4609 33.4219 15.886C33.7463 16.6039 34.0798 17.3455 33.8803 18.1022C33.6641 18.8893 32.9614 19.3947 32.336 19.8401C31.94 20.079 31.5922 20.39 31.3106 20.7568C31.1294 21.1887 31.0306 21.6507 31.0192 22.119C30.943 22.8784 30.8571 23.7406 30.2895 24.3066C29.7219 24.8725 28.9009 24.952 28.1074 25.0309C27.6367 25.0421 27.1723 25.1413 26.7382 25.3233C26.5735 25.4299 26.4274 25.5629 26.3057 25.7168C26.1463 25.9028 25.9949 26.1152 25.8338 26.3401C25.3852 26.9687 24.8771 27.6806 24.0857 27.8903C23.9283 27.9321 23.7659 27.9528 23.603 27.952Z" fill="#0C347B"/>
<path d="M26.6199 4.78466C26.5668 4.78454 26.514 4.77672 26.4631 4.76141C26.3733 4.73282 26.287 4.6942 26.2058 4.64628C25.7422 4.33613 25.3475 3.9337 25.0464 3.46412C25.0046 3.40673 24.9746 3.34167 24.9579 3.27266C24.9413 3.20365 24.9384 3.13204 24.9495 3.06192C24.9605 2.9918 24.9852 2.92454 25.0223 2.86398C25.0593 2.80343 25.1079 2.75076 25.1653 2.70898C25.2227 2.66721 25.2878 2.63715 25.3568 2.62052C25.4258 2.60388 25.4974 2.60101 25.5675 2.61205C25.6376 2.62309 25.7049 2.64784 25.7654 2.68487C25.826 2.72191 25.8787 2.77051 25.9204 2.8279C26.1361 3.16898 26.4137 3.46671 26.7388 3.70574C26.7528 3.71417 26.7672 3.72175 26.7821 3.72844C26.8499 3.74889 26.9129 3.78254 26.9677 3.82745C27.0224 3.87236 27.0678 3.92765 27.1011 3.99014C27.1344 4.05263 27.155 4.12109 27.1618 4.19158C27.1685 4.26207 27.1613 4.33319 27.1404 4.40087C27.1066 4.51241 27.0377 4.61004 26.9439 4.6792C26.8501 4.74836 26.7364 4.78535 26.6199 4.78466Z" fill="#0C347B"/>
<path d="M20.5002 23.4418C18.7348 23.4418 17.009 22.9183 15.5412 21.9375C14.0733 20.9567 12.9293 19.5626 12.2537 17.9316C11.5781 16.3006 11.4013 14.5059 11.7457 12.7744C12.0901 11.043 12.9403 9.45251 14.1886 8.2042C15.4369 6.95588 17.0273 6.10577 18.7588 5.76136C20.4903 5.41695 22.285 5.59371 23.916 6.2693C25.547 6.94488 26.941 8.08894 27.9218 9.55681C28.9026 11.0247 29.4261 12.7504 29.4261 14.5158C29.4234 16.8823 28.4821 19.151 26.8088 20.8244C25.1354 22.4977 22.8666 23.439 20.5002 23.4418ZM20.5002 6.67147C18.9486 6.67147 17.4318 7.13158 16.1417 7.99361C14.8516 8.85564 13.8462 10.0809 13.2524 11.5144C12.6587 12.9479 12.5033 14.5252 12.8061 16.047C13.1088 17.5688 13.856 18.9666 14.9532 20.0637C16.0504 21.1608 17.4483 21.9079 18.97 22.2105C20.4918 22.5132 22.0692 22.3577 23.5026 21.7639C24.9361 21.1701 26.1613 20.1645 27.0232 18.8743C27.8851 17.5842 28.3451 16.0674 28.345 14.5158C28.3425 12.4361 27.5151 10.4422 26.0445 8.97167C24.5738 7.50112 22.5799 6.6739 20.5002 6.67147Z" fill="#0C347B"/>
<path d="M24.626 12.3625C24.4337 12.1702 24.1217 12.1702 23.9294 12.3626L19.5486 16.7433L17.2696 14.4643C17.0773 14.2719 16.7653 14.2719 16.573 14.4643C16.3806 14.6567 16.3806 14.9686 16.573 15.161L19.2003 17.7883C19.2965 17.8845 19.4226 17.9325 19.5486 17.9325C19.6746 17.9325 19.8008 17.8845 19.8969 17.7883L24.6259 13.0592C24.8183 12.8667 24.8183 12.5549 24.626 12.3625Z" fill="#0C347B"/>
<path d="M25.8889 38.9188C25.7729 38.9182 25.6601 38.8803 25.5673 38.8107L20.5003 35.0599L15.4332 38.8107C15.3529 38.871 15.2574 38.9076 15.1574 38.9166C15.0575 38.9257 14.957 38.9067 14.8672 38.8618C14.7774 38.8169 14.7019 38.7479 14.6491 38.6625C14.5963 38.5771 14.5684 38.4787 14.5684 38.3783V25.3696C14.5684 25.2263 14.6253 25.0888 14.7267 24.9874C14.8281 24.8861 14.9655 24.8291 15.1089 24.8291C15.2523 24.8291 15.3897 24.8861 15.4911 24.9874C15.5925 25.0888 15.6494 25.2263 15.6494 25.3696V37.3053L20.1759 33.954C20.269 33.8851 20.3817 33.8479 20.4975 33.8479C20.6134 33.8479 20.7261 33.8851 20.8192 33.954L25.3457 37.3053V25.3696C25.3457 25.2263 25.4026 25.0888 25.504 24.9874C25.6053 24.8861 25.7428 24.8291 25.8862 24.8291C26.0296 24.8291 26.167 24.8861 26.2684 24.9874C26.3698 25.0888 26.4267 25.2263 26.4267 25.3696V38.3783C26.4267 38.5216 26.3698 38.6591 26.2684 38.7605C26.167 38.8619 26.0296 38.9188 25.8862 38.9188H25.8889Z" fill="#0C347B"/>
<path d="M20.5 34.9276C20.3567 34.9276 20.2192 34.8707 20.1178 34.7693C20.0164 34.6679 19.9595 34.5305 19.9595 34.3871V26.4541C19.9595 26.3108 20.0164 26.1733 20.1178 26.0719C20.2192 25.9705 20.3567 25.9136 20.5 25.9136C20.6434 25.9136 20.7809 25.9705 20.8822 26.0719C20.9836 26.1733 21.0406 26.3108 21.0406 26.4541V34.3871C21.0406 34.5305 20.9836 34.6679 20.8822 34.7693C20.7809 34.8707 20.6434 34.9276 20.5 34.9276Z" fill="#0C347B"/>
</svg>
