<svg width="41" height="40" viewBox="0 0 41 40" fill="none" xmlns="http://www.w3.org/2000/svg">
<g clip-path="url(#clip0)">
<path d="M37.6998 18.0753L36.664 13.9319C36.9472 13.8718 37.1597 13.6205 37.1597 13.3195V12.6514C37.1597 11.201 35.9796 10.021 34.5292 10.021H29.8111V8.64301C29.8111 7.92926 29.2305 7.34863 28.5167 7.34863H4.46656C3.75281 7.34863 3.17219 7.92926 3.17219 8.64301V20C3.17219 20.3459 3.45258 20.6264 3.79852 20.6264C4.14438 20.6264 4.42484 20.346 4.42484 20V8.64301C4.42484 8.61996 4.44352 8.60129 4.46656 8.60129H28.5166C28.5397 8.60129 28.5584 8.61996 28.5584 8.64301V20.0002C28.5584 20.3461 28.8388 20.6265 29.1847 20.6265C29.5305 20.6265 29.811 20.3461 29.811 20.0002V19.2902H37.1992C37.1998 19.2902 37.2003 19.2904 37.2009 19.2904C37.2015 19.2904 37.202 19.2903 37.2026 19.2903C38.1117 19.2909 38.8837 19.8876 39.1488 20.7099H37.2013C36.8555 20.7099 36.575 20.9903 36.575 21.3362V22.6723C36.575 23.7544 37.4553 24.6347 38.5374 24.6347H39.2473V27.3904H37.6096C37.0716 25.8371 35.595 24.7182 33.861 24.7182C32.127 24.7182 30.6503 25.8371 30.1124 27.3904H29.8109V22.6722C29.8109 22.3264 29.5305 22.0459 29.1845 22.0459C28.8387 22.0459 28.5582 22.3263 28.5582 22.6722V27.3903H15.5638C15.0259 25.8369 13.5492 24.718 11.8152 24.718C10.0813 24.718 8.60453 25.8369 8.06664 27.3903H4.46656C4.44352 27.3903 4.42484 27.3716 4.42484 27.3486V25.9707H7.13883C7.48469 25.9707 7.76516 25.6903 7.76516 25.3443C7.76516 24.9984 7.48477 24.718 7.13883 24.718H1.12633C0.780469 24.718 0.5 24.9984 0.5 25.3443C0.5 25.6903 0.780391 25.9707 1.12633 25.9707H3.17227V27.3486C3.17227 28.0623 3.75289 28.6429 4.46664 28.6429H7.84977C7.84961 28.6568 7.84867 28.6707 7.84867 28.6847C7.84867 30.8718 9.62813 32.6512 11.8152 32.6512C14.0023 32.6512 15.7818 30.8718 15.7818 28.6847C15.7818 28.6706 15.7809 28.6568 15.7807 28.6429H29.8955C29.8954 28.6568 29.8945 28.6707 29.8945 28.6847C29.8945 30.8718 31.6739 32.6512 33.861 32.6512C36.0481 32.6512 37.8276 30.8718 37.8276 28.6847C37.8276 28.6706 37.8266 28.6568 37.8265 28.6429H39.8736C40.2195 28.6429 40.4999 28.3625 40.4999 28.0166V21.3361C40.5 19.6867 39.283 18.3163 37.6998 18.0753ZM29.8111 11.2736H34.5292C35.289 11.2736 35.9071 11.8917 35.9071 12.6514V12.6932H29.8111V11.2736ZM29.8111 18.0376V13.9457H35.3763L36.3993 18.0376H29.8111ZM11.8152 31.3988C10.3188 31.3988 9.10125 30.1814 9.10125 28.6848C9.10125 27.1882 10.3188 25.9708 11.8152 25.9708C13.3117 25.9708 14.5292 27.1882 14.5292 28.6848C14.5292 30.1814 13.3117 31.3988 11.8152 31.3988ZM33.8612 31.3988C32.3647 31.3988 31.1472 30.1814 31.1472 28.6848C31.1472 27.1882 32.3647 25.9708 33.8612 25.9708C35.3577 25.9708 36.5752 27.1882 36.5752 28.6848C36.5752 30.1814 35.3577 31.3988 33.8612 31.3988ZM39.2474 23.3821H38.5376C38.1462 23.3821 37.8277 23.0636 37.8277 22.6722V21.9624H39.2473V23.3821H39.2474Z" fill="#0C347B"/>
<path d="M11.8154 27.3906C11.1016 27.3906 10.521 27.9713 10.521 28.685C10.521 29.3988 11.1016 29.9794 11.8154 29.9794C12.5291 29.9794 13.1097 29.3988 13.1097 28.685C13.1097 27.9713 12.5291 27.3906 11.8154 27.3906Z" fill="#0C347B"/>
<path d="M33.8608 27.3906C33.147 27.3906 32.5664 27.9713 32.5664 28.685C32.5664 29.3988 33.147 29.9794 33.8608 29.9794C34.5745 29.9794 35.1552 29.3988 35.1552 28.685C35.1552 27.9713 34.5745 27.3906 33.8608 27.3906Z" fill="#0C347B"/>
<path d="M26.5123 24.7183H17.1595C16.8137 24.7183 16.5332 24.9987 16.5332 25.3446C16.5332 25.6905 16.8136 25.9709 17.1595 25.9709H26.5123C26.8582 25.9709 27.1387 25.6905 27.1387 25.3446C27.1387 24.9987 26.8583 24.7183 26.5123 24.7183Z" fill="#0C347B"/>
<path d="M10.479 22.0459H2.46227C2.11641 22.0459 1.83594 22.3263 1.83594 22.6722C1.83594 23.0182 2.11633 23.2986 2.46227 23.2986H10.479C10.8248 23.2986 11.1053 23.0182 11.1053 22.6722C11.1053 22.3263 10.8248 22.0459 10.479 22.0459Z" fill="#0C347B"/>
</g>
<defs>
<clipPath id="clip0">
<rect width="40" height="40" fill="white" transform="translate(0.5)"/>
</clipPath>
</defs>
</svg>
