<svg width="41" height="40" viewBox="0 0 41 40" fill="none" xmlns="http://www.w3.org/2000/svg">
<path d="M7.26566 22.2701H7.79966C8.1686 22.2701 8.46766 21.971 8.46766 21.6021C8.46766 21.2332 8.1686 20.9341 7.79966 20.9341H7.26566C6.89672 20.9341 6.59766 21.2332 6.59766 21.6021C6.59766 21.971 6.89672 22.2701 7.26566 22.2701Z" fill="#0C347B"/>
<path d="M14.5253 22.2701C14.8942 22.2701 15.1933 21.971 15.1933 21.6021C15.1933 21.2332 14.8942 20.9341 14.5253 20.9341H10.4732C10.1042 20.9341 9.80518 21.2332 9.80518 21.6021C9.80518 21.971 10.1042 22.2701 10.4732 22.2701H14.5253Z" fill="#0C347B"/>
<path d="M7.26566 25.441H14.5254C14.8943 25.441 15.1934 25.1419 15.1934 24.773C15.1934 24.4041 14.8943 24.105 14.5254 24.105H7.26566C6.89672 24.105 6.59766 24.4041 6.59766 24.773C6.59766 25.1419 6.89672 25.441 7.26566 25.441Z" fill="#0C347B"/>
<path d="M29.4003 16.0431V4.83945C29.4003 3.64125 28.4245 2.6665 27.2251 2.6665H5.33985C4.14145 2.6665 3.1665 3.64132 3.1665 4.83945V12.7805C3.1665 13.1494 3.46557 13.4485 3.83451 13.4485C4.20344 13.4485 4.50251 13.1494 4.50251 12.7805V4.83945C4.50251 4.37793 4.87813 4.00251 5.33985 4.00251H11.5358V12.667C11.5358 12.9091 11.6668 13.1322 11.8782 13.2502C12.0896 13.3682 12.3483 13.3627 12.5543 13.2356L16.2825 10.9378L20.0106 13.2356C20.4484 13.5054 21.0291 13.1788 21.0291 12.6669V4.00251H27.2251C27.6878 4.00251 28.0643 4.37793 28.0643 4.83945V15.8479C27.8036 15.8277 27.5401 15.8171 27.2743 15.8171C21.7085 15.8171 17.1804 20.3441 17.1804 25.9085C17.1804 26.47 17.2273 27.0207 17.3159 27.5575H5.33985C4.87813 27.5575 4.50251 27.1812 4.50251 26.7187V18.7776C4.50251 18.4087 4.20344 18.1096 3.83451 18.1096C3.46557 18.1096 3.1665 18.4087 3.1665 18.7776V26.7187C3.1665 27.9179 4.14145 28.8936 5.33985 28.8936H17.6312C18.9073 33.0052 22.7475 35.9998 27.2743 35.9998C32.8401 35.9998 37.3682 31.4728 37.3682 25.9085C37.3682 21.0731 33.9486 17.0218 29.4003 16.0431ZM19.6931 11.4706L16.633 9.58447C16.4181 9.45207 16.1469 9.45207 15.932 9.58447L12.8718 11.4706V4.00251H19.6931V11.4706ZM27.2743 34.6638C22.4452 34.6638 18.5164 30.7362 18.5164 25.9085C18.5164 21.0809 22.4452 17.1532 27.2743 17.1532C32.1034 17.1532 36.0322 21.0808 36.0322 25.9085C36.0322 30.7362 32.1034 34.6638 27.2743 34.6638Z" fill="#0C347B"/>
<path d="M28.4884 22.0393H25.9367L27.1277 20.8496C27.3886 20.5889 27.3889 20.1659 27.1282 19.9049C26.8675 19.6438 26.4446 19.6437 26.1834 19.9044L23.8506 22.2346C23.5931 22.4899 23.5931 22.9247 23.8506 23.1798L26.1834 25.5102C26.3139 25.6404 26.4847 25.7056 26.6555 25.7056C26.8266 25.7056 26.9977 25.6402 27.1281 25.5096C27.3889 25.2486 27.3886 24.8257 27.1277 24.5649L25.9367 23.3752H28.4885C30.1049 23.3752 31.42 24.6899 31.42 26.3057C31.42 27.9227 30.1049 29.2382 28.4885 29.2382H22.4615C22.0925 29.2382 21.7935 29.5373 21.7935 29.9062C21.7935 30.2751 22.0925 30.5742 22.4615 30.5742H28.4885C30.8417 30.5742 32.7561 28.6594 32.7561 26.3057C32.756 23.9532 30.8416 22.0393 28.4884 22.0393Z" fill="#0C347B"/>
<path d="M3.83451 16.4492C4.20344 16.4492 4.50251 16.1482 4.50251 15.7793C4.50251 15.4105 4.20344 15.1113 3.83451 15.1113C3.46557 15.1113 3.1665 15.4105 3.1665 15.7793V15.7831C3.1665 16.152 3.46557 16.4492 3.83451 16.4492Z" fill="#0C347B"/>
</svg>
