<svg width="16" height="16" viewBox="0 0 16 16" fill="none" xmlns="http://www.w3.org/2000/svg">
<path d="M3 0H13C14.7 0 16 1.3 16 3V13C16 14.7 14.7 16 13 16H3C1.3 16 0 14.7 0 13V3C0 1.3 1.3 0 3 0Z" fill="#FF1D6E"/>
<path d="M5.19922 3.49994V6.89996H6.99922C7.19922 6.89996 7.99922 6.89993 8.29922 6.79993C8.99922 6.59993 9.49922 5.99995 9.49922 5.19995C9.49922 4.19995 8.69922 3.49994 7.59922 3.49994H5.19922ZM4.19922 10.9999V2.69995H7.69922C9.29922 2.69995 10.3992 3.69995 10.3992 5.19995C10.3992 6.29995 9.79922 7.09994 8.79922 7.49994C7.79922 7.89994 7.79922 7.59991 7.69922 7.59991L12.5992 13.4999H11.4992L6.69922 7.69995H5.09922V10.9999H4.19922Z" fill="white" stroke="white" stroke-width="0.5"/>
<path d="M11.5 8L7 13.6H8.1L12.5 8.09998H11.5V8Z" fill="white" stroke="white" stroke-width="0.5"/>
</svg>
